<svg id="elih3epkx381" xmlns="http://www.w3.org/2000/svg" xmlns:xlink="http://www.w3.org/1999/xlink" viewBox="0 0 2902 2902" shape-rendering="geometricPrecision" text-rendering="geometricPrecision"><style><![CDATA[#elih3epkx385_to {animation: elih3epkx385_to__to 3000ms linear 10 alternate forwards}@keyframes elih3epkx385_to__to { 0% {transform: translate(1451px,1451px)} 100% {transform: translate(1413.500000px,1413.500000px)} }#elih3epkx3812_to {animation: elih3epkx3812_to__to 3000ms linear 10 alternate forwards}@keyframes elih3epkx3812_to__to { 0% {transform: translate(1451px,1451px)} 100% {transform: translate(1501.500000px,1501.500000px)} }#elih3epkx3823_ts {animation: elih3epkx3823_ts__ts 3000ms linear 10 alternate forwards}@keyframes elih3epkx3823_ts__ts { 0% {transform: translate(2373px,1875px) scale(1,1)} 76.666667% {transform: translate(2373px,1875px) scale(1,1);animation-timing-function: cubic-bezier(0.880000,-0.040000,0.745000,0.715000)} 80% {transform: translate(2373px,1875px) scale(1,0.200000);animation-timing-function: cubic-bezier(0.880000,-0.040000,0.745000,0.715000)} 83.333333% {transform: translate(2373px,1875px) scale(1,1)} 100% {transform: translate(2373px,1875px) scale(1,1)} }#elih3epkx3824_ts {animation: elih3epkx3824_ts__ts 3000ms linear 10 alternate forwards}@keyframes elih3epkx3824_ts__ts { 0% {transform: translate(530px,1875px) scale(1,1)} 76.666667% {transform: translate(530px,1875px) scale(1,1)} 80% {transform: translate(530px,1875px) scale(1,0.200000)} 83.333333% {transform: translate(530px,1875px) scale(1,1)} 100% {transform: translate(530px,1875px) scale(1,1)} }]]></style><g id="elih3epkx382" clip-rule="evenodd"><g id="elih3epkx383" clip-rule="evenodd"><rect id="elih3epkx384" width="2902" height="2902" rx="0" ry="0" clip-rule="evenodd" fill="none" fill-rule="evenodd" stroke="none" stroke-width="1"/><g id="elih3epkx385_to" transform="translate(1451,1451)"><g id="elih3epkx385" transform="translate(-1413.500000,-1413.500000)" clip-rule="evenodd"><g id="elih3epkx386"><path id="elih3epkx387" d="M558,1485C666,1000,1030,663,1447,663C1863,663,2227,1000,2335,1485" clip-rule="evenodd" fill="none" fill-rule="evenodd" stroke="rgb(255,153,204)" stroke-width="151.819000" stroke-linecap="round" stroke-linejoin="round"/><circle id="elih3epkx388" r="327" transform="matrix(1 0 0 1 491.99999999999994 1837)" clip-rule="evenodd" fill="rgb(255,153,204)" fill-rule="evenodd" stroke="rgb(255,153,204)" stroke-width="151.819000"/><circle id="elih3epkx389" r="327" transform="matrix(1 0 0 1 2335 1837)" clip-rule="evenodd" fill="rgb(255,153,204)" fill-rule="evenodd" stroke="rgb(255,153,204)" stroke-width="151.819000"/></g><circle id="elih3epkx3810" r="101" transform="matrix(1 0 0 1 2335 1837)" clip-rule="evenodd" fill="rgb(255,153,204)" fill-rule="evenodd" stroke="rgb(255,153,204)" stroke-width="7.712380"/><circle id="elih3epkx3811" r="101" transform="matrix(1 0 0 1 492 1837)" clip-rule="evenodd" fill="rgb(255,153,204)" fill-rule="evenodd" stroke="rgb(255,153,204)" stroke-width="7.712380"/></g></g><g id="elih3epkx3812_to" transform="translate(1451,1451)"><g id="elih3epkx3812" transform="translate(-1501.500000,-1501.500000)" clip-rule="evenodd"><g id="elih3epkx3813"><path id="elih3epkx3814" d="M646,1573C754,1088,1118,751,1535,751C1951,751,2315,1088,2423,1573" clip-rule="evenodd" fill="none" fill-rule="evenodd" stroke="rgb(100,185,238)" stroke-width="151.819000" stroke-linecap="round" stroke-linejoin="round"/><circle id="elih3epkx3815" r="327" transform="matrix(1 0 0 1 580 1925)" clip-rule="evenodd" fill="rgb(100,185,238)" fill-rule="evenodd" stroke="rgb(100,185,238)" stroke-width="151.819000"/><circle id="elih3epkx3816" r="327" transform="matrix(1 0 0 1 2423 1925)" clip-rule="evenodd" fill="rgb(100,185,238)" fill-rule="evenodd" stroke="rgb(100,185,238)" stroke-width="151.819000"/></g><circle id="elih3epkx3817" r="101" transform="matrix(1 0 0 1 2423 1925)" clip-rule="evenodd" fill="rgb(100,185,238)" fill-rule="evenodd" stroke="rgb(100,185,238)" stroke-width="7.712380"/><circle id="elih3epkx3818" r="101" transform="matrix(1 0 0 1 580 1925)" clip-rule="evenodd" fill="rgb(100,185,238)" fill-rule="evenodd" stroke="rgb(100,185,238)" stroke-width="7.712380"/></g></g><g id="elih3epkx3819" clip-rule="evenodd"><path id="elih3epkx3820" d="M596,1523C704,1038,1068,701,1484,701C1901,701,2265,1038,2373,1523" clip-rule="evenodd" fill="none" fill-rule="evenodd" stroke="rgb(0,0,0)" stroke-width="151.819000" stroke-linecap="round" stroke-linejoin="round"/><circle id="elih3epkx3821" r="327" transform="matrix(1 0 0 1 530 1875)" clip-rule="evenodd" fill="rgb(100,185,238)" fill-rule="evenodd" stroke="rgb(0,0,0)" stroke-width="151.819000"/><circle id="elih3epkx3822" r="327" transform="matrix(1 0 0 1 2373 1875)" clip-rule="evenodd" fill="rgb(100,185,238)" fill-rule="evenodd" stroke="rgb(0,0,0)" stroke-width="151.819000"/><g id="elih3epkx3823_ts" transform="translate(2373,1875) scale(1,1)"><circle id="elih3epkx3823" r="101" transform="translate(0,0)" clip-rule="evenodd" fill="rgb(0,36,86)" fill-rule="evenodd" stroke="none" stroke-width="1"/></g><g id="elih3epkx3824_ts" transform="translate(530,1875) scale(1,1)"><circle id="elih3epkx3824" r="101" transform="translate(0,0)" clip-rule="evenodd" fill="rgb(0,36,86)" fill-rule="evenodd" stroke="none" stroke-width="1"/></g></g></g></g></svg>